<?xml version="1.0" encoding="UTF-8" standalone="no"?>
<!-- Created with Inkscape (http://www.inkscape.org/) -->

<svg
   xmlns:dc="http://purl.org/dc/elements/1.1/"
   xmlns:cc="http://creativecommons.org/ns#"
   xmlns:rdf="http://www.w3.org/1999/02/22-rdf-syntax-ns#"
   xmlns:svg="http://www.w3.org/2000/svg"
   xmlns="http://www.w3.org/2000/svg"
   xmlns:sodipodi="http://sodipodi.sourceforge.net/DTD/sodipodi-0.dtd"
   xmlns:inkscape="http://www.inkscape.org/namespaces/inkscape"
   width="1000"
   height="1000"
   id="svg3068"
   version="1.1"
   inkscape:version="0.48.3.1 r9886"
   sodipodi:docname="src.svg">
  <defs
     id="defs3070" />
  <sodipodi:namedview
     id="base"
     pagecolor="#ffffff"
     bordercolor="#666666"
     borderopacity="1.0"
     inkscape:pageopacity="0.0"
     inkscape:pageshadow="2"
     inkscape:zoom="0.35"
     inkscape:cx="581.60276"
     inkscape:cy="392.40506"
     inkscape:document-units="px"
     inkscape:current-layer="layer1"
     showgrid="false"
     inkscape:window-width="1920"
     inkscape:window-height="1004"
     inkscape:window-x="0"
     inkscape:window-y="391"
     inkscape:window-maximized="1"
     showguides="true"
     inkscape:guide-bbox="true">
    <inkscape:grid
       type="xygrid"
       id="grid3114"
       empspacing="5"
       visible="true"
       enabled="true"
       snapvisiblegridlinesonly="true" />
  </sodipodi:namedview>
  <metadata
     id="metadata3073">
    <rdf:RDF>
      <cc:Work
         rdf:about="">
        <dc:format>image/svg+xml</dc:format>
        <dc:type
           rdf:resource="http://purl.org/dc/dcmitype/StillImage" />
        <dc:title></dc:title>
      </cc:Work>
    </rdf:RDF>
  </metadata>
  <g
     inkscape:label="Layer 1"
     inkscape:groupmode="layer"
     id="layer1"
     transform="translate(0,-52.362183)">
    <path
       sodipodi:type="arc"
       style="fill:#000000;stroke:#000000"
       id="path3116"
       sodipodi:cx="810"
       sodipodi:cy="270"
       sodipodi:rx="140"
       sodipodi:ry="140"
       d="m 950,270 a 140,140 0 1 1 -280,0 140,140 0 1 1 280,0 z"
       transform="translate(32.857143,-63.352097)" />
    <path
       style="font-size:medium;font-style:normal;font-variant:normal;font-weight:normal;font-stretch:normal;text-indent:0;text-align:start;text-decoration:none;line-height:normal;letter-spacing:normal;word-spacing:normal;text-transform:none;direction:ltr;block-progression:tb;writing-mode:lr-tb;text-anchor:start;baseline-shift:baseline;color:#000000;fill:#000000;fill-opacity:1;stroke:none;stroke-width:100;marker:none;visibility:visible;display:inline;overflow:visible;enable-background:accumulate;font-family:Sans;-inkscape-font-specification:Sans"
       d="m 332.98214,195.20593 c -0.0844,3.80733 -0.125,7.61038 -0.125,11.4375 0,281.073 228.92701,510 510,510 1.91356,0 3.81008,-0.0101 5.71875,-0.0313 l 0,-100 c -1.90374,0.0258 -3.80869,0.0313 -5.71875,0.0313 -227.02898,0 -410,-182.97102 -410,-410 0,-3.83071 0.0527,-7.63254 0.15625,-11.4375 l -100.03125,0 z"
       id="path3902"
       inkscape:connector-curvature="0" />
    <path
       style="font-size:medium;font-style:normal;font-variant:normal;font-weight:normal;font-stretch:normal;text-indent:0;text-align:start;text-decoration:none;line-height:normal;letter-spacing:normal;word-spacing:normal;text-transform:none;direction:ltr;block-progression:tb;writing-mode:lr-tb;text-anchor:start;baseline-shift:baseline;color:#000000;fill:#000000;fill-opacity:1;stroke:none;stroke-width:100;marker:none;visibility:visible;display:inline;overflow:visible;enable-background:accumulate;font-family:Sans;-inkscape-font-specification:Sans"
       d="m 493.04464,195.20593 c -0.12308,3.79762 -0.1875,7.611 -0.1875,11.4375 0,192.70743 157.29257,350 350,350 1.91331,0 3.81254,-0.0316 5.71875,-0.0625 l 0,-100 c -1.90479,0.0423 -3.80331,0.0625 -5.71875,0.0625 -138.66342,0 -250,-111.33658 -250,-250 0,-3.83876 0.0811,-7.64241 0.25,-11.4375 l -100.0625,0 z"
       id="path3902-6"
       inkscape:connector-curvature="0" />
    <path
       style="font-size:medium;font-style:normal;font-variant:normal;font-weight:normal;font-stretch:normal;text-indent:0;text-align:start;text-decoration:none;line-height:normal;letter-spacing:normal;word-spacing:normal;text-transform:none;direction:ltr;block-progression:tb;writing-mode:lr-tb;text-anchor:start;baseline-shift:baseline;color:#000000;fill:#000000;fill-opacity:1;stroke:none;stroke-width:100;marker:none;visibility:visible;display:inline;overflow:visible;enable-background:accumulate;font-family:Sans;-inkscape-font-specification:Sans"
       d="m 12.919643,195.20593 c -0.05158,3.80496 -0.0625,7.62047 -0.0625,11.4375 0,457.8041 372.195887,829.99997 829.999997,829.99997 1.90821,0 3.81354,-0.018 5.71875,-0.031 l 0,-100.00002 c -1.90791,0.0146 -3.80734,0.0313 -5.71875,0.0313 -403.7601,0 -730,-326.2399 -730,-730 0,-3.8228 0.0355,-7.62881 0.0937,-11.4375 l -100.031247,0 z"
       id="path3902-68"
       inkscape:connector-curvature="0" />
    <path
       style="font-size:medium;font-style:normal;font-variant:normal;font-weight:normal;font-stretch:normal;text-indent:0;text-align:start;text-decoration:none;line-height:normal;letter-spacing:normal;word-spacing:normal;text-transform:none;direction:ltr;block-progression:tb;writing-mode:lr-tb;text-anchor:start;baseline-shift:baseline;color:#000000;fill:#000000;fill-opacity:1;stroke:none;stroke-width:100;marker:none;visibility:visible;display:inline;overflow:visible;enable-background:accumulate;font-family:Sans;-inkscape-font-specification:Sans"
       d="m 172.98214,195.20593 c -0.064,3.80542 -0.125,7.6171 -0.125,11.4375 0,369.4386 300.56145,670 670,670 1.90677,0 3.81568,-0.0153 5.71875,-0.0313 l 0,-100 c -1.90616,0.0186 -3.80808,0.0313 -5.71875,0.0313 -315.39454,0 -570,-254.6055 -570,-570 0,-3.82137 0.0506,-7.63432 0.125,-11.4375 l -100,0 z"
       id="path3902-68-8"
       inkscape:connector-curvature="0" />
  </g>
</svg>
